HIERARCHY
ROOT ETY1
{
	OFFSET 0.000000 0.000000 0.000000
	CHANNELS 6 Xposition Yposition Zposition Xrotation Yrotation Zrotation
	JOINT N_ALL
	{
		OFFSET 0.000000 0.000000 0.000000
		CHANNELS 3 Xrotation Yrotation Zrotation
		JOINT locator2
		{
			OFFSET 0.000000 0.000000 63.674999
			CHANNELS 3 Xrotation Yrotation Zrotation
			JOINT hara
			{
				OFFSET -0.000000 -0.000000 0.472500
				CHANNELS 3 Xrotation Yrotation Zrotation
				JOINT mune
				{
					OFFSET -0.000005 -0.000000 14.647499
					CHANNELS 3 Xrotation Yrotation Zrotation
					JOINT kubi
					{
						OFFSET -0.565367 0.000000 13.797264
						CHANNELS 3 Xrotation Yrotation Zrotation
						JOINT kao
						{
							OFFSET 0.709599 -0.000000 1.686798
							CHANNELS 3 Xrotation Yrotation Zrotation
							JOINT ago
							{
								OFFSET 1.521274 -0.000001 2.195969
								CHANNELS 3 Xrotation Yrotation Zrotation
								End Site
								{
									OFFSET -0.000000 0.000000 0.365990
								}
							}
							JOINT eyebrow
							{
								OFFSET 2.744157 -0.000001 4.250847
								CHANNELS 3 Xrotation Yrotation Zrotation
								End Site
								{
									OFFSET -0.000000 0.000000 0.365990
								}
							}
							JOINT lip
							{
								OFFSET 1.419795 -0.000001 0.927528
								CHANNELS 3 Xrotation Yrotation Zrotation
								End Site
								{
									OFFSET 0.365992 -0.000000 0.000000
								}
							}
						}
					}
					JOINT L_sako
					{
						OFFSET -0.472501 6.525000 10.465401
						CHANNELS 3 Xrotation Yrotation Zrotation
						JOINT L_kata
						{
							OFFSET -0.000001 5.850000 -0.581734
							CHANNELS 3 Xrotation Yrotation Zrotation
							JOINT L_hiji
							{
								OFFSET -0.483016 15.785759 -0.000015
								CHANNELS 3 Xrotation Yrotation Zrotation
								JOINT L_te
								{
									OFFSET 0.611527 17.032738 -0.013641
									CHANNELS 3 Xrotation Yrotation Zrotation
									JOINT LeftHandIndex1
									{
										OFFSET 2.549848 6.470253 0.791817
										CHANNELS 3 Xrotation Yrotation Zrotation
										JOINT LeftHandIndex2
										{
											OFFSET -0.000001 2.289848 0.000000
											CHANNELS 3 Xrotation Yrotation Zrotation
											JOINT LeftHandIndex3
											{
												OFFSET -0.000001 2.268135 0.000000
												CHANNELS 3 Xrotation Yrotation Zrotation
												End Site
												{
													OFFSET 0.000000 0.365993 0.000000
												}
											}
										}
									}
									JOINT LeftHandMiddle1
									{
										OFFSET 0.874708 6.694298 1.118919
										CHANNELS 3 Xrotation Yrotation Zrotation
										JOINT LeftHandMiddle2
										{
											OFFSET -0.000001 2.683815 0.000000
											CHANNELS 3 Xrotation Yrotation Zrotation
											JOINT LeftHandMiddle3
											{
												OFFSET -0.000001 2.217308 0.000000
												CHANNELS 3 Xrotation Yrotation Zrotation
												End Site
												{
													OFFSET -0.000000 0.365993 0.000000
												}
											}
										}
									}
									JOINT LeftHandPinky1
									{
										OFFSET -2.442180 5.931721 0.497902
										CHANNELS 3 Xrotation Yrotation Zrotation
										JOINT LeftHandPinky2
										{
											OFFSET -0.000000 2.137306 0.000000
											CHANNELS 3 Xrotation Yrotation Zrotation
											JOINT LeftHandPinky3
											{
												OFFSET -0.000000 1.836044 0.000000
												CHANNELS 3 Xrotation Yrotation Zrotation
												End Site
												{
													OFFSET 0.000000 0.365993 0.000000
												}
											}
										}
									}
									JOINT LeftHandRing1
									{
										OFFSET -0.853656 6.338440 0.870934
										CHANNELS 3 Xrotation Yrotation Zrotation
										JOINT LeftHandRing2
										{
											OFFSET -0.000001 2.531284 0.000000
											CHANNELS 3 Xrotation Yrotation Zrotation
											JOINT LeftHandRing3
											{
												OFFSET -0.000001 2.217308 0.000000
												CHANNELS 3 Xrotation Yrotation Zrotation
												End Site
												{
													OFFSET -0.000000 0.365993 0.000000
												}
											}
										}
									}
									JOINT LeftHandThumb1
									{
										OFFSET 2.594638 1.377514 -1.567856
										CHANNELS 3 Xrotation Yrotation Zrotation
										JOINT LeftHandThumb2
										{
											OFFSET 1.626614 2.409187 0.000557
											CHANNELS 3 Xrotation Yrotation Zrotation
											JOINT LeftHandThumb3
											{
												OFFSET 0.823900 2.113201 0.000290
												CHANNELS 3 Xrotation Yrotation Zrotation
												End Site
												{
													OFFSET 0.000000 0.365993 0.000000
												}
											}
										}
									}
								}
							}
						}
					}
					JOINT R_sako
					{
						OFFSET -0.472506 -6.525000 10.465546
						CHANNELS 3 Xrotation Yrotation Zrotation
						JOINT R_kata
						{
							OFFSET 0.000002 -5.850000 -0.581696
							CHANNELS 3 Xrotation Yrotation Zrotation
							JOINT R_hiji
							{
								OFFSET -0.483008 -15.785765 -0.000015
								CHANNELS 3 Xrotation Yrotation Zrotation
								JOINT R_te
								{
									OFFSET 0.611537 -17.032732 -0.013748
									CHANNELS 3 Xrotation Yrotation Zrotation
									JOINT RightHandIndex1
									{
										OFFSET 2.550124 -6.470253 0.790878
										CHANNELS 3 Xrotation Yrotation Zrotation
										JOINT RightHandIndex2
										{
											OFFSET 0.000001 -2.289848 0.000000
											CHANNELS 3 Xrotation Yrotation Zrotation
											JOINT RightHandIndex3
											{
												OFFSET 0.000001 -2.268135 0.000000
												CHANNELS 3 Xrotation Yrotation Zrotation
												End Site
												{
													OFFSET 0.000000 -0.365993 0.000000
												}
											}
										}
									}
									JOINT RightHandMiddle1
									{
										OFFSET 0.875098 -6.694302 1.118561
										CHANNELS 3 Xrotation Yrotation Zrotation
										JOINT RightHandMiddle2
										{
											OFFSET 0.000001 -2.683807 0.000000
											CHANNELS 3 Xrotation Yrotation Zrotation
											JOINT RightHandMiddle3
											{
												OFFSET 0.000001 -2.217308 0.000000
												CHANNELS 3 Xrotation Yrotation Zrotation
												End Site
												{
													OFFSET 0.000000 -0.365993 0.000000
												}
											}
										}
									}
									JOINT RightHandPinky1
									{
										OFFSET -2.442005 -5.931721 0.498680
										CHANNELS 3 Xrotation Yrotation Zrotation
										JOINT RightHandPinky2
										{
											OFFSET 0.000000 -2.137306 0.000000
											CHANNELS 3 Xrotation Yrotation Zrotation
											JOINT RightHandPinky3
											{
												OFFSET 0.000000 -1.836044 0.000000
												CHANNELS 3 Xrotation Yrotation Zrotation
												End Site
												{
													OFFSET 0.000000 -0.365993 0.000000
												}
											}
										}
									}
									JOINT RightHandRing1
									{
										OFFSET -0.853352 -6.338440 0.871170
										CHANNELS 3 Xrotation Yrotation Zrotation
										JOINT RightHandRing2
										{
											OFFSET 0.000001 -2.531284 0.000000
											CHANNELS 3 Xrotation Yrotation Zrotation
											JOINT RightHandRing3
											{
												OFFSET 0.000001 -2.217308 0.000000
												CHANNELS 3 Xrotation Yrotation Zrotation
												End Site
												{
													OFFSET 0.000000 -0.365993 0.000000
												}
											}
										}
									}
									JOINT RightHandThumb1
									{
										OFFSET 2.594098 -1.377514 -1.568817
										CHANNELS 3 Xrotation Yrotation Zrotation
										JOINT RightHandThumb2
										{
											OFFSET 1.626616 -2.409184 0.000000
											CHANNELS 3 Xrotation Yrotation Zrotation
											JOINT RightHandThumb3
											{
												OFFSET 0.823900 -2.113201 0.000000
												CHANNELS 3 Xrotation Yrotation Zrotation
												End Site
												{
													OFFSET 0.000000 -0.365993 0.000000
												}
											}
										}
									}
								}
							}
						}
					}
				}
			}
			JOINT koshi
			{
				OFFSET 0.000000 0.000000 0.000000
				CHANNELS 3 Xrotation Yrotation Zrotation
				JOINT L_momo
				{
					OFFSET 0.000005 5.033075 -8.541428
					CHANNELS 3 Xrotation Yrotation Zrotation
					JOINT L_hiza
					{
						OFFSET 0.236263 0.000015 -23.625002
						CHANNELS 3 Xrotation Yrotation Zrotation
						JOINT L_ashi
						{
							OFFSET -0.944986 0.000017 -25.908707
							CHANNELS 3 Xrotation Yrotation Zrotation
							JOINT L_ashi2
							{
								OFFSET 3.767458 0.000001 -3.875652
								CHANNELS 3 Xrotation Yrotation Zrotation
								End Site
								{
									OFFSET 0.365992 0.000000 0.000000
								}
							}
						}
					}
				}
				JOINT R_momo
				{
					OFFSET 0.000001 -5.033065 -8.541435
					CHANNELS 3 Xrotation Yrotation Zrotation
					JOINT R_hiza
					{
						OFFSET 0.236263 0.000015 -23.624998
						CHANNELS 3 Xrotation Yrotation Zrotation
						JOINT R_ashi
						{
							OFFSET -0.944986 0.000017 -25.908707
							CHANNELS 3 Xrotation Yrotation Zrotation
							JOINT R_ashi2
							{
								OFFSET 3.767459 0.000001 -3.875652
								CHANNELS 3 Xrotation Yrotation Zrotation
								End Site
								{
									OFFSET 0.365992 0.000000 0.000000
								}
							}
						}
					}
				}
			}
		}
	}
}
MOTION
Frames: 5
Frame Time: 0.041667
0.000000 23.749975 0.000000 -0.000000 0.000000 -89.999982 -0.000000 0.000000 -0.000000 -0.000000 0.000003 0.000000 -0.572551 0.049182 -4.467983 -1.953761 4.619424 3.009103 -1.903608 11.356178 2.252590 2.138988 -8.540333 -0.055391 0.000001 4.231216 0.000002 0.000000 1.999890 -0.000016 -0.000004 -2.399202 0.000001 -21.151820 19.985234 12.111462 -55.099812 11.840321 1.146341 -0.391063 0.095633 -38.082160 1.663962 -4.751806 0.330849 -74.128870 11.593537 0.286452 -96.095045 0.021991 -0.019441 -96.095045 0.021895 -0.019607 -63.264627 0.010878 -0.017695 -95.048079 0.021527 -0.019746 -95.048079 0.021526 -0.019747 -84.444484 -10.119177 -0.020074 -89.056712 0.019460 -0.019714 -102.105830 0.023938 -0.019277 -75.502653 0.014776 -0.019309 -94.514880 0.021176 -0.020215 -94.514874 0.021168 -0.020216 -19.239091 1.320694 4.679949 -0.015061 -0.007116 49.512677 -0.017423 -0.010413 61.620983 16.888061 16.144286 -5.775015 48.212239 20.588499 17.075772 0.304429 0.092136 33.944701 -0.091663 9.084714 2.283496 74.134798 11.579612 -0.306190 96.095072 0.000032 0.000085 96.095038 0.000054 0.000085 63.264627 0.000039 0.000027 95.048086 0.000064 0.000021 95.048086 0.000064 0.000022 84.440980 -10.136862 0.000051 89.056692 -0.000028 0.000235 102.105857 0.000058 0.000083 75.502660 0.000306 -0.000181 94.514894 0.000090 0.000063 94.514887 -0.000082 0.000380 19.238804 1.319802 -4.686556 0.000022 -0.000060 -49.512690 0.000042 -0.000073 -61.620983 0.109872 -4.753989 -7.968789 3.886378 -13.639836 8.081106 -0.073763 10.394829 -0.017345 -2.939313 8.616453 10.749668 0.017745 1.526012 0.099502 -3.259088 3.282776 8.752542 0.004087 22.829023 -0.495180 2.609561 -11.184201 -16.723705 2.786425 -10.225090 1.954038 
0.000000 24.600950 0.000000 -0.000000 0.000000 -89.999982 -0.000000 0.000000 -0.000000 -0.000000 0.000003 0.000000 -0.866210 -0.251241 -4.735542 -2.177475 4.556432 2.980442 -1.776811 10.898252 2.314752 2.046684 -7.559882 0.092071 0.000001 4.310859 0.000002 0.000001 1.999890 -0.000016 -0.000004 -2.413640 0.000001 -20.917026 19.988958 11.655613 -54.330846 11.068488 0.046433 -0.389229 0.094085 -38.057117 1.779878 -4.347782 0.590877 -74.128870 11.593538 0.286453 -96.095045 0.021989 -0.019440 -96.095045 0.021896 -0.019605 -63.264620 0.010878 -0.017695 -95.048079 0.021527 -0.019746 -95.048079 0.021526 -0.019747 -84.444477 -10.119177 -0.020073 -89.056712 0.019460 -0.019714 -102.105830 0.023938 -0.019279 -75.502653 0.014777 -0.019309 -94.514880 0.021174 -0.020214 -94.514874 0.021167 -0.020215 -19.239092 1.320695 4.679950 -0.015062 -0.007116 49.512677 -0.017423 -0.010415 61.620976 16.827327 15.937907 -5.868534 48.566900 21.398489 17.054917 0.304430 0.092138 33.932557 -0.857600 7.830387 2.243362 74.134805 11.579610 -0.306190 96.095072 0.000036 0.000084 96.095031 0.000052 0.000081 63.264627 0.000040 0.000027 95.048086 0.000063 0.000023 95.048086 0.000061 0.000020 84.440980 -10.136863 0.000050 89.056699 -0.000033 0.000234 102.105857 0.000059 0.000082 75.502660 0.000303 -0.000181 94.514894 0.000084 0.000061 94.514880 -0.000082 0.000383 19.238802 1.319800 -4.686557 0.000022 -0.000055 -49.512683 0.000042 -0.000074 -61.620983 -0.026880 -4.616597 -8.128863 3.718158 -12.987530 8.211238 -0.060220 11.399396 0.005802 -2.597825 6.828550 10.753085 -0.020698 1.966045 0.065471 -3.481660 4.372810 8.906987 -0.021042 22.061617 -0.551984 3.044494 -10.430628 -16.685384 2.199565 -10.239099 1.995325 
0.000000 25.447376 0.000000 -0.000000 0.000000 -89.999982 -0.000000 0.000000 -0.000000 -0.000000 0.000003 0.000000 -1.152237 -0.556902 -5.005883 -2.000094 4.495044 2.921912 -1.652088 10.440390 2.379958 1.955260 -6.273834 0.241572 0.000001 4.390500 0.000002 0.000001 1.999890 -0.000016 -0.000004 -2.428024 0.000001 -20.674954 19.992684 11.203838 -53.501948 10.050231 -0.810600 -0.387340 0.094088 -38.645887 1.886958 -3.942395 0.850950 -74.128876 11.593535 0.286453 -96.095045 0.021990 -0.019440 -96.095045 0.021897 -0.019604 -63.264620 0.010879 -0.017694 -95.048079 0.021528 -0.019747 -95.048079 0.021525 -0.019747 -84.444477 -10.119178 -0.020073 -89.056712 0.019461 -0.019713 -102.105830 0.023938 -0.019279 -75.502660 0.014777 -0.019308 -94.514880 0.021176 -0.020212 -94.514874 0.021168 -0.020215 -19.240402 1.320640 4.679997 -0.015062 -0.007116 49.512677 -0.017424 -0.010413 61.620976 16.764245 15.729239 -5.959907 48.783137 22.230364 16.790722 0.304431 0.092140 33.916284 -0.391190 6.625175 2.205632 74.134798 11.579608 -0.306190 96.095072 0.000036 0.000086 96.095038 0.000053 0.000085 63.264627 0.000041 0.000026 95.048086 0.000066 0.000017 95.048086 0.000065 0.000022 84.440980 -10.136864 0.000051 89.056706 -0.000037 0.000232 102.105857 0.000061 0.000082 75.502660 0.000302 -0.000182 94.514894 0.000088 0.000060 94.514887 -0.000086 0.000381 19.238804 1.319800 -4.686561 0.000023 -0.000055 -49.512687 0.000041 -0.000071 -61.620983 -0.162157 -4.473946 -8.288862 3.663914 -12.552538 8.242419 -0.049826 13.125187 0.092503 -2.587680 4.679222 10.655512 0.047610 1.966067 0.000002 -3.602317 4.783490 8.980285 -0.047397 22.520881 -2.185592 3.571627 -5.946241 -16.045824 4.471720 -13.742631 3.327681 
0.000000 26.298353 0.000000 -0.000000 0.000000 -89.999982 -0.000000 0.000000 -0.000000 -0.000000 0.000003 0.000000 -1.441578 -0.392929 -5.267956 -1.822086 4.432787 2.694492 -1.526981 9.982893 2.390208 1.864496 -4.989431 0.389079 0.000001 4.470200 0.000002 0.000001 1.999890 -0.000016 -0.000003 -2.442464 0.000001 -20.427894 19.992686 10.760135 -52.785061 9.107313 -1.556933 -0.383617 0.097236 -39.234656 1.995845 -3.532976 1.109782 -74.128870 11.593538 0.286454 -96.095045 0.021990 -0.019441 -96.095045 0.021896 -0.019605 -63.264620 0.010879 -0.017695 -95.048079 0.021527 -0.019746 -95.048079 0.021527 -0.019746 -84.444484 -10.119178 -0.020072 -89.056712 0.019460 -0.019714 -102.105830 0.023937 -0.019279 -75.502660 0.014775 -0.019308 -94.514880 0.021174 -0.020214 -94.514874 0.021167 -0.020215 -19.239089 1.320695 4.679948 -0.015061 -0.007115 49.512673 -0.017422 -0.010412 61.620969 16.700017 15.522858 -6.051296 48.840828 23.055659 16.192782 0.305978 0.093397 33.904147 0.075159 5.419310 2.169343 74.134798 11.579611 -0.306190 96.095072 0.000032 0.000082 96.095031 0.000051 0.000086 63.264627 0.000039 0.000028 95.048086 0.000064 0.000024 95.048086 0.000066 0.000021 84.440980 -10.136866 0.000049 89.056699 -0.000030 0.000236 102.105857 0.000058 0.000084 75.502653 0.000307 -0.000184 94.514894 0.000083 0.000061 94.514887 -0.000082 0.000380 19.238802 1.319803 -4.686558 0.000022 -0.000057 -49.512687 0.000044 -0.000075 -61.620976 -0.301919 -4.331351 -8.446149 3.684992 -12.335864 8.231978 -0.032259 14.704981 0.137921 -2.420062 2.870372 10.494471 0.080613 1.819962 0.000002 -3.602655 4.782983 9.018687 -0.069570 23.442095 -3.343857 4.000090 -0.553936 -15.819280 6.687185 -18.829874 5.095734 
0.000000 27.144779 0.000000 -0.000000 0.000000 -89.999982 -0.000000 0.000000 -0.000000 -0.000000 0.000003 0.000000 -1.729997 -0.234561 -5.527429 -1.643898 4.371925 2.467120 -1.403168 9.524017 2.402139 1.775101 -3.703376 0.543208 0.000001 4.549839 0.000002 0.000001 1.999890 -0.000016 -0.000004 -2.456212 0.000001 -20.112419 19.538673 10.144217 -52.143863 8.032045 -1.917606 -0.379892 0.095632 -39.372458 2.013069 -3.128533 1.369527 -74.128870 11.593538 0.286455 -96.095045 0.021989 -0.019440 -96.095045 0.021895 -0.019603 -63.264620 0.010879 -0.017694 -95.048079 0.021527 -0.019746 -95.048079 0.021525 -0.019746 -84.444477 -10.119177 -0.020071 -89.056712 0.019460 -0.019714 -102.105823 0.023938 -0.019279 -75.502653 0.014778 -0.019306 -94.514880 0.021175 -0.020218 -94.514874 0.021165 -0.020215 -19.239092 1.320694 4.679950 -0.015061 -0.007117 49.512677 -0.017422 -0.010412 61.620976 16.634642 15.314187 -6.142739 48.990772 23.854639 15.042110 0.305975 0.093397 33.891931 0.532910 4.212653 2.256991 74.134805 11.579611 -0.306191 96.095072 0.000032 0.000088 96.095031 0.000054 0.000080 63.264627 0.000042 0.000025 95.048086 0.000064 0.000020 95.048086 0.000063 0.000021 84.440980 -10.136862 0.000049 89.056699 -0.000032 0.000236 102.105857 0.000059 0.000084 75.502660 0.000303 -0.000184 94.514894 0.000085 0.000062 94.514887 -0.000084 0.000385 19.238802 1.319798 -4.686556 0.000022 -0.000063 -49.512683 0.000042 -0.000069 -61.620983 -0.433434 -4.191573 -8.351472 3.729376 -12.116941 8.193810 -0.017499 16.001590 0.123345 -2.174039 1.075573 10.343369 0.080764 1.820000 0.025912 -3.448521 4.239420 9.010158 -0.081811 24.821524 -3.271359 4.404610 5.285314 -16.915662 9.113191 -24.132593 7.134597 
